<svg width="18" height="20" viewBox="0 0 18 20" fill="none" xmlns="http://www.w3.org/2000/svg">
<path d="M15.6797 17.5V6.67969H2.32031V17.5H15.6797ZM15.6797 2.5C16.1224 2.5 16.5 2.66927 16.8125 3.00781C17.151 3.34635 17.3203 3.73698 17.3203 4.17969V17.5C17.3203 17.9427 17.151 18.3333 16.8125 18.6719C16.5 19.0104 16.1224 19.1797 15.6797 19.1797H2.32031C1.8776 19.1797 1.48698 19.0104 1.14844 18.6719C0.835938 18.3333 0.679688 17.9427 0.679688 17.5V4.17969C0.679688 3.73698 0.835938 3.34635 1.14844 3.00781C1.48698 2.66927 1.8776 2.5 2.32031 2.5H3.17969V0.820312H4.82031V2.5H13.1797V0.820312H14.8203V2.5H15.6797Z" fill="#C1C7CD"/>
</svg>
