<svg width="18" height="14" viewBox="0 0 18 14" fill="none" xmlns="http://www.w3.org/2000/svg">
<path d="M15.6797 3.67969V2H2.32031V3.67969H15.6797ZM15.6797 12V7H2.32031V12H15.6797ZM15.6797 0.320312C16.1484 0.320312 16.5391 0.489583 16.8516 0.828125C17.1641 1.14062 17.3203 1.53125 17.3203 2V12C17.3203 12.4688 17.1641 12.8724 16.8516 13.2109C16.5391 13.5234 16.1484 13.6797 15.6797 13.6797H2.32031C1.85156 13.6797 1.46094 13.5234 1.14844 13.2109C0.835938 12.8724 0.679688 12.4688 0.679688 12V2C0.679688 1.53125 0.835938 1.14062 1.14844 0.828125C1.46094 0.489583 1.85156 0.320312 2.32031 0.320312H15.6797Z" fill="#C1C7CD"/>
</svg>
