<svg width="14" height="19" viewBox="0 0 14 19" fill="none" xmlns="http://www.w3.org/2000/svg">
<path d="M9.57812 6.67969V5C9.57812 4.29688 9.31771 3.69792 8.79688 3.20312C8.30208 2.68229 7.70312 2.42188 7 2.42188C6.29688 2.42188 5.6849 2.68229 5.16406 3.20312C4.66927 3.69792 4.42188 4.29688 4.42188 5V6.67969H9.57812ZM5.82812 13.6719C6.16667 14.0104 6.55729 14.1797 7 14.1797C7.44271 14.1797 7.83333 14.0104 8.17188 13.6719C8.51042 13.3333 8.67969 12.9427 8.67969 12.5C8.67969 12.0573 8.51042 11.6667 8.17188 11.3281C7.83333 10.9896 7.44271 10.8203 7 10.8203C6.55729 10.8203 6.16667 10.9896 5.82812 11.3281C5.48958 11.6667 5.32031 12.0573 5.32031 12.5C5.32031 12.9427 5.48958 13.3333 5.82812 13.6719ZM12 6.67969C12.4427 6.67969 12.8333 6.84896 13.1719 7.1875C13.5104 7.5 13.6797 7.8776 13.6797 8.32031V16.6797C13.6797 17.1224 13.5104 17.513 13.1719 17.8516C12.8333 18.1641 12.4427 18.3203 12 18.3203H2C1.55729 18.3203 1.16667 18.1641 0.828125 17.8516C0.489583 17.513 0.320312 17.1224 0.320312 16.6797V8.32031C0.320312 7.8776 0.489583 7.5 0.828125 7.1875C1.16667 6.84896 1.55729 6.67969 2 6.67969H2.82031V5C2.82031 3.85417 3.22396 2.8776 4.03125 2.07031C4.86458 1.23698 5.85417 0.820312 7 0.820312C8.14583 0.820312 9.1224 1.23698 9.92969 2.07031C10.763 2.8776 11.1797 3.85417 11.1797 5V6.67969H12Z" fill="#C1C7CD"/>
</svg>
