<svg width="14" height="14" viewBox="0 0 14 14" fill="none" xmlns="http://www.w3.org/2000/svg">
<path d="M2.58594 9.61719C4.1224 8.99219 5.59375 8.67969 7 8.67969C8.40625 8.67969 9.86458 8.99219 11.375 9.61719C12.9115 10.2161 13.6797 11.0104 13.6797 12V13.6797H0.320312V12C0.320312 11.0104 1.07552 10.2161 2.58594 9.61719ZM9.34375 6.02344C8.69271 6.67448 7.91146 7 7 7C6.08854 7 5.30729 6.67448 4.65625 6.02344C4.00521 5.3724 3.67969 4.59115 3.67969 3.67969C3.67969 2.76823 4.00521 1.98698 4.65625 1.33594C5.30729 0.658854 6.08854 0.320312 7 0.320312C7.91146 0.320312 8.69271 0.658854 9.34375 1.33594C9.99479 1.98698 10.3203 2.76823 10.3203 3.67969C10.3203 4.59115 9.99479 5.3724 9.34375 6.02344Z" fill="#1f46ed"/>
</svg>