	<svg
		width="14"
		height="12"
		viewBox="0 0 14 12"
		fill="none"
		xmlns="http://www.w3.org/2000/svg"
	>
		<path
			d="M12.3438 3.34375V2H1.65625V3.34375H12.3438ZM12.3438 10V6H1.65625V10H12.3438ZM12.3438 0.65625C12.7188 0.65625 13.0312 0.791667 13.2812 1.0625C13.5312 1.3125 13.6562 1.625 13.6562 2V10C13.6562 10.375 13.5312 10.6979 13.2812 10.9688C13.0312 11.2188 12.7188 11.3438 12.3438 11.3438H1.65625C1.28125 11.3438 0.96875 11.2188 0.71875 10.9688C0.46875 10.6979 0.34375 10.375 0.34375 10V2C0.34375 1.625 0.46875 1.3125 0.71875 1.0625C0.96875 0.791667 1.28125 0.65625 1.65625 0.65625H12.3438Z"
			fill="#C1C7CD"
		/>
	</svg>
